<?xml version="1.0" encoding="UTF-8"?>
<svg width="1536" height="1536" viewBox="0 0 1536 1536" xmlns="http://www.w3.org/2000/svg">
    <path id="Path" fill="#f7b402" fill-rule="evenodd" stroke="none" d="M 768 1536 C 343.847229 1536 0 1192.152832 0 768 C 0 343.84729 343.847229 0 768 0 C 796.27771 0 819.199219 22.922241 819.199219 51.199219 C 819.199219 79.476318 796.27771 102.400391 768 102.400391 C 400.400085 102.400391 102.400391 400.400146 102.400391 768 C 102.400391 1135.599976 400.400085 1433.599609 768 1433.599609 C 1135.599976 1433.599609 1433.599609 1135.599976 1433.599609 768 C 1433.599609 739.72229 1456.523071 716.800781 1484.800781 716.800781 C 1513.078491 716.800781 1536 739.72229 1536 768 C 1536 1192.152832 1192.152832 1536 768 1536 Z M 768 1177.599609 C 541.783569 1177.599609 358.400391 994.216553 358.400391 768 C 358.400391 541.783447 541.783569 358.400391 768 358.400391 C 796.27771 358.400391 819.199219 381.321899 819.199219 409.599609 C 819.199219 437.877319 796.27771 460.800781 768 460.800781 C 598.338928 460.800781 460.800781 598.338867 460.800781 768 C 460.800781 937.661133 598.338928 1075.199219 768 1075.199219 C 937.661133 1075.199219 1075.199219 937.661133 1075.199219 768 C 1075.199219 739.72229 1098.122681 716.800781 1126.400391 716.800781 C 1154.678101 716.800781 1177.599609 739.72229 1177.599609 768 C 1177.599609 994.216553 994.216553 1177.599609 768 1177.599609 Z M 793.599609 792.097656 C 780.496582 792.097656 767.39325 787.100342 757.396484 777.103516 C 737.40033 757.107422 737.40033 724.688965 757.396484 704.695313 L 1032.919922 429.171875 L 1024.847656 243.5 C 1024.223022 229.163818 1029.647095 215.222046 1039.794922 205.074219 L 1229.865234 15.001953 C 1244.22168 0.644775 1265.707275 -3.872437 1284.630859 3.488281 C 1303.551758 10.848999 1316.339966 28.69751 1317.220703 48.982422 L 1324.232422 210.265625 L 1485.517578 217.277344 C 1505.800415 218.160522 1523.647827 230.945679 1531.007813 249.869141 C 1538.370361 268.792725 1533.852539 290.276123 1519.496094 304.632813 L 1329.425781 494.705078 C 1319.277954 504.852905 1305.336548 510.274414 1290.998047 509.652344 L 1105.326172 501.578125 L 829.802734 777.103516 C 819.804688 787.100342 806.702637 792.097656 793.599609 792.097656 Z M 1272.945313 406.369141 L 1364.787109 314.527344 L 1272.896484 310.53125 C 1246.367188 309.376709 1225.12146 288.133545 1223.966797 261.601563 L 1219.972656 169.710938 L 1128.128906 261.554688 L 1134.162109 400.335938 L 1272.945313 406.369141 Z"/>
</svg>
