<?xml version="1.0" encoding="UTF-8"?>
<!-- Generated by Pixelmator Pro 3.4.3 -->
<svg width="2000" height="2000" viewBox="0 0 2000 2000" xmlns="http://www.w3.org/2000/svg">
    <path id="Path" fill="#f7b402" fill-rule="evenodd" stroke="none" d="M 1000 1768 C 575.847229 1768 232 1424.152832 232 1000 C 232 575.84729 575.847229 232 1000 232 C 1028.27771 232 1051.199219 254.922241 1051.199219 283.199219 C 1051.199219 311.476318 1028.27771 334.400391 1000 334.400391 C 632.400085 334.400391 334.400391 632.400146 334.400391 1000 C 334.400391 1367.599976 632.400085 1665.599609 1000 1665.599609 C 1367.599976 1665.599609 1665.599609 1367.599976 1665.599609 1000 C 1665.599609 971.72229 1688.523071 948.800781 1716.800781 948.800781 C 1745.078491 948.800781 1768 971.72229 1768 1000 C 1768 1424.152832 1424.152832 1768 1000 1768 Z M 1000 1409.599609 C 773.783569 1409.599609 590.400391 1226.216553 590.400391 1000 C 590.400391 773.783447 773.783569 590.400391 1000 590.400391 C 1028.27771 590.400391 1051.199219 613.321899 1051.199219 641.599609 C 1051.199219 669.877319 1028.27771 692.800781 1000 692.800781 C 830.338928 692.800781 692.800781 830.338867 692.800781 1000 C 692.800781 1169.661133 830.338928 1307.199219 1000 1307.199219 C 1169.661133 1307.199219 1307.199219 1169.661133 1307.199219 1000 C 1307.199219 971.72229 1330.122681 948.800781 1358.400391 948.800781 C 1386.678101 948.800781 1409.599609 971.72229 1409.599609 1000 C 1409.599609 1226.216553 1226.216553 1409.599609 1000 1409.599609 Z M 1025.599609 1024.097656 C 1012.496582 1024.097656 999.39325 1019.100342 989.396484 1009.103516 C 969.40033 989.107422 969.40033 956.688965 989.396484 936.695313 L 1264.919922 661.171875 L 1256.847656 475.5 C 1256.223022 461.163818 1261.647095 447.222046 1271.794922 437.074219 L 1461.865234 247.001953 C 1476.22168 232.644775 1497.707275 228.127563 1516.630859 235.488281 C 1535.551758 242.848999 1548.339966 260.69751 1549.220703 280.982422 L 1556.232422 442.265625 L 1717.517578 449.277344 C 1737.800415 450.160522 1755.647827 462.945679 1763.007813 481.869141 C 1770.370361 500.792725 1765.852539 522.276123 1751.496094 536.632813 L 1561.425781 726.705078 C 1551.277954 736.852905 1537.336548 742.274414 1522.998047 741.652344 L 1337.326172 733.578125 L 1061.802734 1009.103516 C 1051.804688 1019.100342 1038.702637 1024.097656 1025.599609 1024.097656 Z M 1504.945313 638.369141 L 1596.787109 546.527344 L 1504.896484 542.53125 C 1478.367188 541.376709 1457.12146 520.133545 1455.966797 493.601563 L 1451.972656 401.710938 L 1360.128906 493.554688 L 1366.162109 632.335938 L 1504.945313 638.369141 Z"/>
</svg>
